<svg id="Layer_1" data-name="Layer 1" xmlns="http://www.w3.org/2000/svg" xmlns:xlink="http://www.w3.org/1999/xlink" viewBox="0 0 1370 269.82"><defs><style>.cls-1{fill:url(#linear-gradient);}.cls-2{fill:url(#linear-gradient-2);}.cls-3{fill:url(#linear-gradient-3);}</style><linearGradient id="linear-gradient" x1="219.58" y1="256.34" x2="59.84" y2="28.38" gradientUnits="userSpaceOnUse"><stop offset="0" stop-color="#0056d3"/><stop offset="1" stop-color="#00ad8c"/></linearGradient><linearGradient id="linear-gradient-2" x1="226.88" y1="258.26" x2="35.62" y2="-14.67" xlink:href="#linear-gradient"/><linearGradient id="linear-gradient-3" x1="215.27" y1="242.92" x2="54.74" y2="13.85" xlink:href="#linear-gradient"/></defs><title>vector file</title><path d="M350.56,113.68A44.24,44.24,0,0,1,373.1,108a42.06,42.06,0,0,1,17,3.57,40.16,40.16,0,0,1,14,10A34.26,34.26,0,0,1,412,136.4h25.74a58.91,58.91,0,0,0-11.83-26.58A67.59,67.59,0,0,0,402.4,90.66a64.8,64.8,0,0,0-29.3-7A68.37,68.37,0,0,0,338,92.73a65.14,65.14,0,0,0-24.32,24.61,68.9,68.9,0,0,0-8.74,34.47,68.9,68.9,0,0,0,8.74,34.47A65.14,65.14,0,0,0,338,210.89,68.37,68.37,0,0,0,373.1,220,65.06,65.06,0,0,0,402.59,213a67.33,67.33,0,0,0,23.48-19.16,57.19,57.19,0,0,0,11.65-26.58H412.17a33.8,33.8,0,0,1-8,14.75A41,41,0,0,1,390,192a42.31,42.31,0,0,1-16.91,3.57,44.24,44.24,0,0,1-22.54-5.64,39.55,39.55,0,0,1-15.22-15.59,49.34,49.34,0,0,1,0-45.08A39.48,39.48,0,0,1,350.56,113.68Z"/><rect x="452" y="114.61" width="23.29" height="102.94"/><rect x="451.81" y="78.92" width="23.67" height="21.6"/><path d="M530.89,117.53a38.52,38.52,0,0,0-9.77,9.75V114.61H498v103h23.29V164q0-9.77,3.57-16.34a22.53,22.53,0,0,1,9.67-9.68,30.6,30.6,0,0,1,14-3.1h9v-22a43.23,43.23,0,0,0-8.26-.94A31.72,31.72,0,0,0,530.89,117.53Z"/><path d="M596.73,138.66a30.47,30.47,0,0,1,15.69-4.13,28.21,28.21,0,0,1,16.9,5.26,24.12,24.12,0,0,1,9.58,14.08h24.23a46.34,46.34,0,0,0-8.73-21.69,48.88,48.88,0,0,0-17.94-14.84,56.23,56.23,0,0,0-51.56,1.88,52.61,52.61,0,0,0-19.63,19.63,55.51,55.51,0,0,0,0,54.47A52.61,52.61,0,0,0,584.9,213a56.28,56.28,0,0,0,51.37,2,49,49,0,0,0,18-14.75,45.93,45.93,0,0,0,8.82-21.7H638.9a24,24,0,0,1-9.67,13.9,28.34,28.34,0,0,1-16.81,5.26,30,30,0,0,1-15.69-4.22,32.56,32.56,0,0,1-11.18-43.49A30.68,30.68,0,0,1,596.73,138.66Z"/><rect x="678.16" y="78.92" width="23.29" height="138.63"/><path d="M798.38,119.22a50.08,50.08,0,0,0-26.3-7.24,54,54,0,0,0-27.52,7.24,52.76,52.76,0,0,0-19.63,19.63,55.77,55.77,0,0,0,0,54.57A53,53,0,0,0,744.56,213a54,54,0,0,0,27.52,7.24q17.85,0,31.38-9.77a45.59,45.59,0,0,0,17.84-25.74H795.75a23.65,23.65,0,0,1-9.67,9.86,27.91,27.91,0,0,1-14,3.67A29.88,29.88,0,0,1,756.4,194a31.2,31.2,0,0,1-11.18-11.46,30.18,30.18,0,0,1-2.87-6.86h80.83a48.33,48.33,0,0,0,.94-9.58,55.32,55.32,0,0,0-6.86-27.23A51.6,51.6,0,0,0,798.38,119.22Zm-53.16,30.52a31,31,0,0,1,11.18-11.55A29.88,29.88,0,0,1,772.08,134a27.15,27.15,0,0,1,14.66,4.23,28.92,28.92,0,0,1,10.52,11.55,33,33,0,0,1,2.51,6.58H742.46A31,31,0,0,1,745.22,149.74Z"/><polygon points="907.14 86.06 883.1 86.06 883.1 217.56 955.24 217.56 955.24 194.64 907.14 194.64 907.14 86.06"/><path d="M1044.28,125a46.19,46.19,0,0,0-7.71-6.06,47.08,47.08,0,0,0-25.54-7,50.62,50.62,0,0,0-26.68,7.14,50,50,0,0,0-18.5,19.54,59.72,59.72,0,0,0,0,54.85,50.08,50.08,0,0,0,45,26.68q14.65,0,25.73-7a45.63,45.63,0,0,0,7.71-6v10.38h23.29V114.61h-23.29Zm-4.23,57.34a29.75,29.75,0,0,1-26.58,15.5,30.58,30.58,0,0,1-15.59-4.13,29.43,29.43,0,0,1-11.18-11.37,34.68,34.68,0,0,1,0-32.49,29.57,29.57,0,0,1,11.18-11.37,30.58,30.58,0,0,1,15.59-4.13,29.75,29.75,0,0,1,26.58,15.5,34.68,34.68,0,0,1,0,32.49Z"/><polygon points="1133.47 190.18 1104.57 114.61 1079.96 114.61 1120.86 217.46 1107.01 249.68 1132.56 249.68 1186.66 114.61 1161.87 114.61 1133.47 190.18"/><path d="M1268.75,119.22a50.11,50.11,0,0,0-26.3-7.24,54,54,0,0,0-27.52,7.24,52.68,52.68,0,0,0-19.63,19.63,55.7,55.7,0,0,0,0,54.57A52.93,52.93,0,0,0,1214.93,213a54,54,0,0,0,27.52,7.24q17.85,0,31.37-9.77a45.56,45.56,0,0,0,17.85-25.74h-25.55a23.65,23.65,0,0,1-9.67,9.86,27.91,27.91,0,0,1-14,3.67,29.85,29.85,0,0,1-15.68-4.23,31.12,31.12,0,0,1-11.18-11.46,30.21,30.21,0,0,1-2.88-6.86h80.84a49.09,49.09,0,0,0,.94-9.58,55.32,55.32,0,0,0-6.86-27.23A51.68,51.68,0,0,0,1268.75,119.22Zm-53.16,30.52a30.92,30.92,0,0,1,11.18-11.55,29.85,29.85,0,0,1,15.68-4.23,27.09,27.09,0,0,1,14.65,4.23,28.85,28.85,0,0,1,10.52,11.55,33,33,0,0,1,2.52,6.58h-57.32A31.51,31.51,0,0,1,1215.59,149.74Z"/><path d="M1361.73,112a31.71,31.71,0,0,0-18.4,5.55,38.36,38.36,0,0,0-9.77,9.75V114.61h-23.11v103h23.3V164q0-9.77,3.56-16.34A22.55,22.55,0,0,1,1347,138a30.55,30.55,0,0,1,14-3.1h9v-22A43.33,43.33,0,0,0,1361.73,112Z"/><path class="cls-1" d="M52.3,191a99.26,99.26,0,0,1-17.2-56c0-1,0-2,0-3.07H66.43l26,31.39a18.23,18.23,0,1,0,10.1-7.06l-25.07-30.3,25-27.74a18.17,18.17,0,0,0,8.36,1.16c8.32-.79,15.94-8.71,16.42-17.05a18.21,18.21,0,1,0-34,7.83L66.59,119.55H36.28A99.83,99.83,0,0,1,186.52,49.47L159,75.51a3.94,3.94,0,0,0,0,5.68L176.42,98.4a4,4,0,0,0,5.53,0l51.74-50.7a4,4,0,0,0-.17-5.79l-9.85-8.61A134.92,134.92,0,0,0,23.74,211.36l.36.52,6.33,6.8a5.6,5.6,0,0,0,7.77.41l17.53-15.28a5.59,5.59,0,0,0,.69-7.71Z"/><path class="cls-2" d="M180.6,143.43A47.88,47.88,0,0,1,140,186.64a6.58,6.58,0,0,0,.92,13.1,7.43,7.43,0,0,0,.94-.07,60.79,60.79,0,0,0,51.91-55.18,6.58,6.58,0,1,0-13.12-1.06Z"/><path class="cls-3" d="M248.79,72.24,227.66,90.92a4,4,0,0,0-1,4.62,99.85,99.85,0,0,1-91.74,139.18A98.93,98.93,0,0,1,85,221.38a4.83,4.83,0,0,0-5.6.59L59.59,239.5a4.87,4.87,0,0,0,.49,7.68A134.92,134.92,0,0,0,269.82,134.91,135.19,135.19,0,0,0,255,73.4,4,4,0,0,0,248.79,72.24Z"/></svg>