<?xml version="1.0" encoding="UTF-8"?>
<svg version="1.1" xmlns="http://www.w3.org/2000/svg" width="62" height="62">
<path d="M0 0 C2.58663981 1.47239497 4.85569625 3.12573317 7.03125 5.15625 C6.61810438 9.60551052 3.52663473 11.99725104 0.46875 14.90625 C-0.05138672 15.41285156 -0.57152344 15.91945313 -1.10742188 16.44140625 C-2.38785084 17.68659405 -3.67742554 18.92236502 -4.96875 20.15625 C-6.28875 19.49625 -7.60875 18.83625 -8.96875 18.15625 C-8.96875 14.15625 -8.96875 14.15625 -6.46875 11.40625 C-5.64375 10.66375 -4.81875 9.92125 -3.96875 9.15625 C-10.50454088 5.88835456 -16.08003562 5.00584521 -23.09375 7.34375 C-31.43328301 10.90151555 -34.43247382 16.09792154 -37.96875 24.15625 C-36.50859709 23.87383359 -35.05065207 23.57998386 -33.59375 23.28125 C-32.37558594 23.03761719 -32.37558594 23.03761719 -31.1328125 22.7890625 C-28.78201077 22.28966068 -28.78201077 22.28966068 -26.96875 20.15625 C-26.63875 19.16625 -26.30875 18.17625 -25.96875 17.15625 C-24.96875 14.15625 -24.96875 14.15625 -22.96875 12.15625 C-20.34375 12.53125 -20.34375 12.53125 -17.96875 13.15625 C-17.34375 16.03125 -17.34375 16.03125 -16.96875 19.15625 C-18.96875 21.15625 -18.96875 21.15625 -21.90625 22.03125 C-25.21644167 23.24723878 -26.19058883 24.19264805 -27.96875 27.15625 C-24.94987756 30.63956435 -22.39965471 31.94782144 -17.96875 33.15625 C-17.28125 35.46875 -17.28125 35.46875 -16.96875 38.15625 C-18.09375 40.03125 -18.09375 40.03125 -19.96875 41.15625 C-22.46875 41.28125 -22.46875 41.28125 -24.96875 40.15625 C-26.05176035 37.86026807 -27.04671291 35.52147558 -27.96875 33.15625 C-30.44881974 29.79044106 -31.54566647 29.24086671 -35.71875 28.40625 C-36.79125 28.32375 -37.86375 28.24125 -38.96875 28.15625 C-38.51678755 29.76222325 -38.05692673 31.36597508 -37.59375 32.96875 C-37.33851562 33.86207031 -37.08328125 34.75539062 -36.8203125 35.67578125 C-36.01608339 38.36092896 -36.01608339 38.36092896 -33.96875 41.15625 C-33.96875 42.14625 -33.96875 43.13625 -33.96875 44.15625 C-36.50059488 46.51348489 -37.44065093 47.15625 -40.96875 47.15625 C-46.97622704 38.6170505 -47.37769027 29.22525241 -45.96875 19.15625 C-43.69698852 11.12001886 -38.52075016 5.11580126 -31.6015625 0.6171875 C-21.68010131 -4.65266874 -10.16469007 -4.74352203 0 0 Z " fill="#43D5CD" transform="translate(45.96875,2.84375)"/>
<path d="M0 0 C4.31753127 7.37578259 4.34112162 16.49980477 2.34375 24.69140625 C-0.76082657 32.38593871 -7.35972606 40.3518226 -14.921875 43.90234375 C-24.2255822 47.48196159 -32.50074741 46.65305949 -41.6875 43.16796875 C-43.95346078 42.02350545 -45.34390931 40.90123569 -47 39 C-45.84826645 36.53199953 -44.95216435 34.95216435 -43 33 C-40.69732333 33.31761058 -38.87140765 34.05869546 -36.7578125 35.0234375 C-30.55436089 37.22012716 -22.66041238 37.14057493 -16.5625 34.5625 C-11.23577576 31.4251497 -7.91471558 25.74414674 -6 20 C-6.00723758 16.38120938 -6.07600888 12.77589907 -6.21484375 9.16015625 C-6.32416893 3.42555363 -6.32416893 3.42555363 -4.67138672 1.25585938 C-3 0 -3 0 0 0 Z " fill="#4C92FA" transform="translate(58,16)"/>
<path d="M0 0 C4.64406686 -0.4221879 7.9498888 0.74128414 12 3 C13.125 5.5 13.125 5.5 13 8 C11.875 9.875 11.875 9.875 10 11 C7.5 11.125 7.5 11.125 5 10 C3.3125 6.625 3.3125 6.625 2 3 C1.34 2.01 0.68 1.02 0 0 Z " fill="#4CCCE9" transform="translate(16,33)"/>
<path d="M0 0 C0.99 0 1.98 0 3 0 C3.45647158 5.70589472 2.69917584 8.60098008 -1 13 C-4.43602812 15.57702109 -5.60072868 16 -10 16 C-9.8125 14.1875 -9.8125 14.1875 -9 12 C-7.33720673 10.9935725 -5.67016516 9.99414593 -4 9 C-1.91618114 6.09753802 -0.65066851 3.51360995 0 0 Z " fill="#4EB8F6" transform="translate(41,29)"/>
</svg>
